<svg viewBox="55 35 530 150" xmlns="http://www.w3.org/2000/svg" role="img" aria-label="BAMZAL — autonomous advertising (light text variant)">
  <g transform="translate(38 12) scale(0.42)">
    <path fill="#FAF6EC" fill-rule="evenodd" d="M 144 116 H 172 A 70 70 0 0 1 172 256 A 70 70 0 0 1 172 396 H 144 Z M 172 144 A 42 42 0 0 1 172 228 L 172 228 Z M 172 284 A 42 42 0 0 1 172 368 L 172 368 Z"/>
  </g>

  <line x1="194" y1="50" x2="194" y2="150" stroke="#C9A961" stroke-opacity="0.5" stroke-width="1"/>

  <g fill="#FAF6EC" fill-rule="evenodd">
    <path d="M 210 65 H 216 V 155 H 210 Z M 216 65 H 232 A 19 22 0 0 1 232 109 H 216 V 99 H 230 A 9 12 0 0 0 230 75 H 216 Z M 216 109 H 234 A 21 23 0 0 1 234 155 H 216 V 145 H 232 A 10 13 0 0 0 232 119 H 216 Z"/>
    <path d="M 266 155 L 288 65 H 300 L 322 155 H 311 L 307 137 H 281 L 277 155 Z M 285 124 H 303 L 294 88 Z"/>
    <path d="M 332 65 H 339 L 371 145 L 403 65 H 410 V 155 H 401 V 88 L 374 152 H 368 L 341 88 V 155 H 332 Z"/>
    <path d="M 420 65 H 468 V 80 L 437 140 H 468 V 155 H 420 V 140 L 451 80 H 420 Z"/>
    <path d="M 478 155 L 500 65 H 512 L 534 155 H 523 L 519 137 H 493 L 489 155 Z M 497 124 H 515 L 506 88 Z"/>
    <path d="M 544 65 H 550 V 142 H 580 V 155 H 544 Z"/>
  </g>

  <circle cx="219" cy="85" r="3.5" fill="#C9A961"/>
  <circle cx="294" cy="78" r="3.5" fill="#C9A961"/>
  <circle cx="371" cy="135" r="3.5" fill="#C9A961"/>
  <circle cx="444" cy="110" r="3.5" fill="#C9A961"/>
  <circle cx="506" cy="78" r="3.5" fill="#C9A961"/>
  <circle cx="575" cy="148" r="3.5" fill="#C9A961"/>

  <line x1="210" y1="170" x2="580" y2="170" stroke="#C9A961" stroke-width="2" stroke-linecap="round" opacity="0.85"/>
</svg>
