<svg viewBox="0 0 512 512" xmlns="http://www.w3.org/2000/svg" role="img" aria-label="Bamzal favicon">
  <title>Bamzal</title>
  <defs>
    <mask id="bamzal-cut">
      <rect width="512" height="512" fill="#fff"/>
      <path fill="none" stroke="#000" stroke-width="62" stroke-linecap="butt" stroke-linejoin="miter" d="M46 132 406 304 46 476"/>
    </mask>
  </defs>
  <path fill="#03050b" mask="url(#bamzal-cut)" d="M74 34h202c110 0 176 58 176 146 0 52-29 93-80 116 62 22 96 66 96 125 0 76-66 125-176 125H74V34Zm106 82v138h91c53 0 83-25 83-68s-31-70-88-70h-86Zm0 218v128h103c57 0 88-24 88-66 0-40-33-62-92-62h-99Z"/>
</svg>
