<svg viewBox="55 35 530 150" xmlns="http://www.w3.org/2000/svg" role="img" aria-label="BAMZAL — autonomous advertising (light text variant)">
  <g transform="translate(38 12) scale(0.42)">
    <path fill="#FAF6EC" fill-rule="evenodd" d="M 144 116 H 200 A 70 70 0 0 1 200 256 A 74 70 0 0 1 200 396 H 144 Z M 200 152 A 34 34 0 0 1 200 220 Z M 200 292 A 38 38 0 0 1 200 360 Z"/>
  </g>

  <line x1="194" y1="50" x2="194" y2="150" stroke="#C9A961" stroke-opacity="0.5" stroke-width="1"/>

  <g fill="#FAF6EC" fill-rule="evenodd">
    <path d="M 205 65 H 229 A 19 19 0 0 1 229 103 H 205 Z M 216 76 V 92 H 228 A 8 8 0 0 0 228 76 Z M 205 103 H 231 A 22 22 0 0 1 231 147 H 205 Z M 216 114 V 136 H 230 A 11 11 0 0 0 230 114 Z"/>
    <path d="M 263 147 L 286 65 A 12 8 0 0 1 298 65 L 321 147 H 309 L 305 128 H 279 L 275 147 Z M 282 117 H 302 L 295 92 A 10 6 0 0 0 289 92 Z"/>
    <path d="M 329 65 H 343 L 370 142 L 397 65 H 411 V 147 H 401 V 88 L 376 147 H 364 L 339 88 V 147 H 329 Z"/>
    <path d="M 419 65 H 469 V 76 L 434 136 H 469 V 147 H 419 V 136 L 454 76 H 419 Z"/>
    <path d="M 477 147 L 500 65 A 12 8 0 0 1 512 65 L 535 147 H 523 L 519 128 H 493 L 489 147 Z M 496 117 H 516 L 509 92 A 10 6 0 0 0 503 92 Z"/>
    <path d="M 543 65 H 555 V 136 H 579 V 147 H 543 Z"/>
  </g>

  <line x1="205" y1="155" x2="579" y2="155" stroke="#C9A961" stroke-width="2" stroke-linecap="round" opacity="0.9"/>
  <circle cx="205" cy="155" r="3" fill="#C9A961"/>
  <circle cx="392" cy="155" r="3" fill="#C9A961"/>
  <circle cx="579" cy="155" r="3" fill="#C9A961"/>
</svg>
