<svg viewBox="55 35 530 150" xmlns="http://www.w3.org/2000/svg" role="img" aria-label="BAMZAL — autonomous advertising (light text variant)">
  <g transform="translate(38 12) scale(0.42)">
    <path fill="#FAF6EC" fill-rule="evenodd" d="M 144 116 H 200 A 70 70 0 0 1 200 256 A 74 70 0 0 1 200 396 H 144 Z M 200 152 A 34 34 0 0 1 200 220 Z M 200 292 A 38 38 0 0 1 200 360 Z"/>
  </g>

  <line x1="194" y1="50" x2="194" y2="150" stroke="#C9A961" stroke-opacity="0.5" stroke-width="1"/>

  <g fill="#FAF6EC" fill-rule="evenodd">
    <path d="M 210 65 H 215 V 155 H 210 Z M 215 65 H 230 A 18 22 0 0 1 230 109 H 215 V 99 H 228 A 8 12 0 0 0 228 75 H 215 Z M 215 109 H 232 A 20 23 0 0 1 232 155 H 215 V 145 H 230 A 9 13 0 0 0 230 119 H 215 Z"/>
    <path d="M 266 155 L 287 65 H 301 L 322 155 H 308 L 304 138 H 284 L 280 155 Z M 287 124 H 301 L 294 89 Z"/>
    <path d="M 266 155 L 274 155 L 270 149 Z"/>
    <path d="M 322 155 L 314 155 L 318 149 Z"/>
    <path d="M 332 155 V 65 H 339 L 371 130 L 403 65 H 410 V 155 H 401 V 84 L 374 138 H 368 L 341 84 V 155 Z"/>
    <path d="M 420 65 H 466 V 80 L 437 142 H 466 V 155 H 420 V 140 L 449 78 H 420 Z"/>
    <path d="M 476 155 L 497 65 H 511 L 532 155 H 518 L 514 138 H 494 L 490 155 Z M 497 124 H 511 L 504 89 Z"/>
    <path d="M 476 155 L 484 155 L 480 149 Z"/>
    <path d="M 532 155 L 524 155 L 528 149 Z"/>
    <path d="M 542 65 H 547 V 142 H 578 V 155 H 542 Z"/>
  </g>

  <line x1="210" y1="167" x2="578" y2="167" stroke="#C9A961" stroke-width="2" stroke-linecap="round" opacity="0.9"/>
  <circle cx="210" cy="167" r="3" fill="#C9A961"/>
  <circle cx="394" cy="167" r="3" fill="#C9A961"/>
  <circle cx="578" cy="167" r="3" fill="#C9A961"/>
</svg>
